<svg height="477pt" viewBox="0 -2 477.00946 477" width="477pt" xmlns="http://www.w3.org/2000/svg" xmlns:xlink="http://www.w3.org/1999/xlink"><linearGradient id="a"><stop offset="0" stop-color="#00efd1"/><stop offset="1" stop-color="#00acea"/></linearGradient><linearGradient id="b" gradientUnits="userSpaceOnUse" x1="67.613" x2="67.613" xlink:href="#a" y1="4.008949" y2="464.164949"/><linearGradient id="c" gradientUnits="userSpaceOnUse" x1="112.99" x2="112.99" xlink:href="#a" y1="4.008949" y2="464.164949"/><linearGradient id="d" gradientUnits="userSpaceOnUse" x1="158.366" x2="158.366" xlink:href="#a" y1="4.008949" y2="464.164949"/><linearGradient id="e" gradientUnits="userSpaceOnUse" x1="203.742" x2="203.742" xlink:href="#a" y1="4.008949" y2="464.164949"/><linearGradient id="f" gradientUnits="userSpaceOnUse" x1="67.629" x2="67.629" xlink:href="#a" y1="4.008949" y2="464.164949"/><linearGradient id="g" gradientUnits="userSpaceOnUse" x1="113.005" x2="113.005" xlink:href="#a" y1="4.008949" y2="464.164949"/><linearGradient id="h" gradientUnits="userSpaceOnUse" x1="158.382" x2="158.382" xlink:href="#a" y1="4.008949" y2="464.164949"/><linearGradient id="i" gradientUnits="userSpaceOnUse" x1="203.758" x2="203.758" xlink:href="#a" y1="4.008949" y2="464.164949"/><linearGradient id="j" gradientUnits="userSpaceOnUse" x1="67.645" x2="67.645" xlink:href="#a" y1="4.008949" y2="464.164949"/><linearGradient id="k" gradientUnits="userSpaceOnUse" x1="113.021" x2="113.021" xlink:href="#a" y1="4.008949" y2="464.164949"/><linearGradient id="l" gradientUnits="userSpaceOnUse" x1="158.398" x2="158.398" xlink:href="#a" y1="4.008949" y2="464.164949"/><linearGradient id="m" gradientUnits="userSpaceOnUse" x1="203.774" x2="203.774" xlink:href="#a" y1="4.008949" y2="464.164949"/><linearGradient id="n" gradientUnits="userSpaceOnUse" x1="67.661" x2="67.661" xlink:href="#a" y1="4.008949" y2="464.164949"/><linearGradient id="o" gradientUnits="userSpaceOnUse" x1="113.037" x2="113.037" xlink:href="#a" y1="4.008949" y2="464.164949"/><linearGradient id="p" gradientUnits="userSpaceOnUse" x1="158.414" x2="158.414" xlink:href="#a" y1="4.008949" y2="464.164949"/><linearGradient id="q" gradientUnits="userSpaceOnUse" x1="203.79" x2="203.79" xlink:href="#a" y1="4.008949" y2="464.164949"/><linearGradient id="r" gradientUnits="userSpaceOnUse" x1="67.677" x2="67.677" xlink:href="#a" y1="4.008949" y2="464.164949"/><linearGradient id="s" gradientUnits="userSpaceOnUse" x1="113.053" x2="113.053" xlink:href="#a" y1="4.008949" y2="464.164949"/><linearGradient id="t" gradientUnits="userSpaceOnUse" x1="158.43" x2="158.43" xlink:href="#a" y1="4.008949" y2="464.164949"/><linearGradient id="u" gradientUnits="userSpaceOnUse" x1="203.806" x2="203.806" xlink:href="#a" y1="4.008949" y2="464.164949"/><linearGradient id="v" gradientUnits="userSpaceOnUse" x1="275.661" x2="275.661" xlink:href="#a" y1="4.008949" y2="464.164949"/><linearGradient id="w" gradientUnits="userSpaceOnUse" x1="321.037" x2="321.037" xlink:href="#a" y1="4.008949" y2="464.164949"/><linearGradient id="x" gradientUnits="userSpaceOnUse" x1="366.414" x2="366.414" xlink:href="#a" y1="4.008949" y2="464.164949"/><linearGradient id="y" gradientUnits="userSpaceOnUse" x1="411.79" x2="411.79" xlink:href="#a" y1="4.008949" y2="464.164949"/><linearGradient id="z" gradientUnits="userSpaceOnUse" x1="275.677" x2="275.677" xlink:href="#a" y1="4.008949" y2="464.164949"/><linearGradient id="A" gradientUnits="userSpaceOnUse" x1="321.053" x2="321.053" xlink:href="#a" y1="4.008949" y2="464.164949"/><linearGradient id="B" gradientUnits="userSpaceOnUse" x1="366.43" x2="366.43" xlink:href="#a" y1="4.008949" y2="464.164949"/><linearGradient id="C" gradientUnits="userSpaceOnUse" x1="411.806" x2="411.806" xlink:href="#a" y1="4.008949" y2="464.164949"/><linearGradient id="D" gradientUnits="userSpaceOnUse" x1="275.613" x2="275.613" xlink:href="#a" y1="4.008949" y2="464.164949"/><linearGradient id="E" gradientUnits="userSpaceOnUse" x1="320.99" x2="320.99" xlink:href="#a" y1="4.008949" y2="464.164949"/><linearGradient id="F" gradientUnits="userSpaceOnUse" x1="366.366" x2="366.366" xlink:href="#a" y1="4.008949" y2="464.164949"/><linearGradient id="G" gradientUnits="userSpaceOnUse" x1="411.742" x2="411.742" xlink:href="#a" y1="4.008949" y2="464.164949"/><linearGradient id="H" gradientUnits="userSpaceOnUse" x1="275.629" x2="275.629" xlink:href="#a" y1="4.008949" y2="464.164949"/><linearGradient id="I" gradientUnits="userSpaceOnUse" x1="321.005" x2="321.005" xlink:href="#a" y1="4.008949" y2="464.164949"/><linearGradient id="J" gradientUnits="userSpaceOnUse" x1="366.382" x2="366.382" xlink:href="#a" y1="4.008949" y2="464.164949"/><linearGradient id="K" gradientUnits="userSpaceOnUse" x1="411.758" x2="411.758" xlink:href="#a" y1="4.008949" y2="464.164949"/><linearGradient id="L" gradientUnits="userSpaceOnUse" x1="275.645" x2="275.645" xlink:href="#a" y1="4.008949" y2="464.164949"/><linearGradient id="M" gradientUnits="userSpaceOnUse" x1="321.021" x2="321.021" xlink:href="#a" y1="4.008949" y2="464.164949"/><linearGradient id="N" gradientUnits="userSpaceOnUse" x1="366.398" x2="366.398" xlink:href="#a" y1="4.008949" y2="464.164949"/><linearGradient id="O" gradientUnits="userSpaceOnUse" x1="411.774" x2="411.774" xlink:href="#a" y1="4.008949" y2="464.164949"/><linearGradient id="P" gradientUnits="userSpaceOnUse" x1="238.5" x2="238.5" xlink:href="#a" y1="4.008949" y2="464.164949"/><path d="m59.613281 68.347656h16v22.152344h-16zm0 0" fill="url(#b)"/><path d="m104.988281 68.359375h16v22.152344h-16zm0 0" fill="url(#c)"/><path d="m150.367188 68.371094h16v22.148437h-16zm0 0" fill="url(#d)"/><path d="m195.742188 68.382812h16v22.148438h-16zm0 0" fill="url(#e)"/><path d="m59.628906 109.339844h16v22.152344h-16zm0 0" fill="url(#f)"/><path d="m105.003906 109.351562h16v22.152344h-16zm0 0" fill="url(#g)"/><path d="m150.382812 109.363281h16v22.152344h-16zm0 0" fill="url(#h)"/><path d="m195.757812 109.375h16v22.148438h-16zm0 0" fill="url(#i)"/><path d="m59.644531 149.703125h16v22.148437h-16zm0 0" fill="url(#j)"/><path d="m105.019531 149.714844h16v22.148437h-16zm0 0" fill="url(#k)"/><path d="m150.398438 149.726562h16v22.148438h-16zm0 0" fill="url(#l)"/><path d="m195.773438 149.734375h16v22.152344h-16zm0 0" fill="url(#m)"/><path d="m59.660156 190.695312h16v22.152344h-16zm0 0" fill="url(#n)"/><path d="m105.035156 190.707031h16v22.148438h-16zm0 0" fill="url(#o)"/><path d="m150.414062 190.71875h16v22.148438h-16zm0 0" fill="url(#p)"/><path d="m195.789062 190.730469h16v22.148437h-16zm0 0" fill="url(#q)"/><path d="m59.675781 231.6875h16v22.152344h-16zm0 0" fill="url(#r)"/><path d="m105.054688 231.699219h16v22.152343h-16zm0 0" fill="url(#s)"/><path d="m150.429688 231.710938h16v22.148437h-16zm0 0" fill="url(#t)"/><path d="m195.804688 231.722656h16v22.148438h-16zm0 0" fill="url(#u)"/><path d="m59.613281 275.347656h16v22.152344h-16zm0 0" fill="url(#b)"/><path d="m104.988281 275.359375h16v22.152344h-16zm0 0" fill="url(#c)"/><path d="m150.367188 275.371094h16v22.148437h-16zm0 0" fill="url(#d)"/><path d="m195.742188 275.382812h16v22.148438h-16zm0 0" fill="url(#e)"/><path d="m59.628906 316.339844h16v22.152344h-16zm0 0" fill="url(#f)"/><path d="m105.003906 316.351562h16v22.152344h-16zm0 0" fill="url(#g)"/><path d="m150.382812 316.363281h16v22.152344h-16zm0 0" fill="url(#h)"/><path d="m195.757812 316.375h16v22.148438h-16zm0 0" fill="url(#i)"/><path d="m59.644531 356.703125h16v22.148437h-16zm0 0" fill="url(#j)"/><path d="m105.019531 356.714844h16v22.148437h-16zm0 0" fill="url(#k)"/><path d="m150.398438 356.726562h16v22.148438h-16zm0 0" fill="url(#l)"/><path d="m195.773438 356.734375h16v22.152344h-16zm0 0" fill="url(#m)"/><path d="m267.660156 190.695312h16v22.152344h-16zm0 0" fill="url(#v)"/><path d="m313.035156 190.707031h16v22.148438h-16zm0 0" fill="url(#w)"/><path d="m358.414062 190.71875h16v22.148438h-16zm0 0" fill="url(#x)"/><path d="m403.789062 190.730469h16v22.148437h-16zm0 0" fill="url(#y)"/><path d="m267.675781 231.6875h16v22.152344h-16zm0 0" fill="url(#z)"/><path d="m313.054688 231.699219h16v22.152343h-16zm0 0" fill="url(#A)"/><path d="m358.429688 231.710938h16v22.148437h-16zm0 0" fill="url(#B)"/><path d="m403.804688 231.722656h16v22.148438h-16zm0 0" fill="url(#C)"/><path d="m267.613281 275.347656h16v22.152344h-16zm0 0" fill="url(#D)"/><path d="m312.988281 275.359375h16v22.152344h-16zm0 0" fill="url(#E)"/><path d="m358.367188 275.371094h16v22.148437h-16zm0 0" fill="url(#F)"/><path d="m403.742188 275.382812h16v22.148438h-16zm0 0" fill="url(#G)"/><path d="m267.628906 316.339844h16v22.152344h-16zm0 0" fill="url(#H)"/><path d="m313.003906 316.351562h16v22.152344h-16zm0 0" fill="url(#I)"/><path d="m358.382812 316.363281h16v22.152344h-16zm0 0" fill="url(#J)"/><path d="m403.757812 316.375h16v22.148438h-16zm0 0" fill="url(#K)"/><path d="m267.644531 356.703125h16v22.148437h-16zm0 0" fill="url(#L)"/><path d="m313.019531 356.714844h16v22.148437h-16zm0 0" fill="url(#M)"/><path d="m358.398438 356.726562h16v22.148438h-16zm0 0" fill="url(#N)"/><path d="m403.773438 356.734375h16v22.152344h-16zm0 0" fill="url(#O)"/><path d="m469.5 422.007812h-14.5v-283.257812c.105469-2.039062-.644531-4.03125-2.066406-5.5s-3.390625-2.28125-5.433594-2.242188h-200.5v-123.390624c.097656-2.027344-.65625-4.003907-2.082031-5.449219-1.425781-1.445313-3.390625-2.2265628-5.417969-2.1601565h-208c-4.417969 0-8.5 3.1914065-8.5 7.6093755v414.390624h-14.5c-4.417969 0-8.5 3.324219-8.5 7.742188v34.652344c0 4.417968 4.082031 7.605468 8.5 7.605468h461c2.027344.070313 3.992188-.710937 5.417969-2.15625 1.425781-1.449218 2.179687-3.421874 2.082031-5.449218v-34.652344c.105469-2.039062-.644531-4.03125-2.066406-5.5s-3.390625-2.28125-5.433594-2.242188zm-30.5-275v275h-192v-275zm-400-131h192v406h-192zm422 440h-445v-18h445zm0 0" fill="url(#P)"/></svg>