<svg height="491pt" viewBox="-11 0 491 491.9477" width="491pt" xmlns="http://www.w3.org/2000/svg" xmlns:xlink="http://www.w3.org/1999/xlink"><linearGradient id="a"><stop offset="0" stop-color="#00efd1"/><stop offset="1" stop-color="#00acea"/></linearGradient><linearGradient id="b" gradientUnits="userSpaceOnUse" x1="388.43485" x2="388.43485" xlink:href="#a" y1="41.947697" y2="459.176697"/><linearGradient id="c" gradientUnits="userSpaceOnUse" x1="319.97385" x2="319.97385" xlink:href="#a" y1="41.947697" y2="459.176697"/><linearGradient id="d" gradientUnits="userSpaceOnUse" x1="201.97385" x2="201.97385" xlink:href="#a" y1="41.947697" y2="459.176697"/><linearGradient id="e" gradientUnits="userSpaceOnUse" x1="264.97385" x2="264.97385" xlink:href="#a" y1="41.947697" y2="459.176697"/><linearGradient id="f" gradientUnits="userSpaceOnUse" x1="234.47385" x2="234.47385" xlink:href="#a" y1="41.947697" y2="459.176697"/><linearGradient id="g" gradientUnits="userSpaceOnUse" x1="352.97385" x2="352.97385" xlink:href="#a" y1="41.947697" y2="459.176697"/><linearGradient id="h" gradientUnits="userSpaceOnUse" x1="415.97385" x2="415.97385" xlink:href="#a" y1="41.947697" y2="459.176697"/><linearGradient id="i" gradientUnits="userSpaceOnUse" x1="51.97385" x2="51.97385" xlink:href="#a" y1="41.947697" y2="459.176697"/><linearGradient id="j" gradientUnits="userSpaceOnUse" x1="114.97385" x2="114.97385" xlink:href="#a" y1="41.947697" y2="459.176697"/><path d="m359.011719 76.246094c2.136719.632812 4.355469.953125 6.582031.953125 6.71875-.019531 13.121094-2.863281 17.640625-7.835938 1.597656.730469 3.242187 1.347657 4.925781 1.84375 19.230469 5.609375 39.371094-5.394531 45.042969-24.605469 5.667969-19.210937-5.273437-39.386718-24.464844-45.117187-9.949219-2.933594-20.675781-1.4765625-29.484375 4-8.804687 5.476563-14.855468 14.453125-16.625 24.675781-11.066406 1.449219-19.609375 10.449219-20.484375 21.578125-.875 11.128907 6.160157 21.347657 16.867188 24.507813zm-.628907-24.820313c.960938-3.242187 3.9375-5.46875 7.320313-5.476562.675781 0 1.351563.089843 2 .277343.101563.03125.199219.058594.289063.085938 2.523437.722656 5.238281.160156 7.269531-1.503906 2.027343-1.664063 3.113281-4.21875 2.902343-6.832032-.765624-9.621093 5.339844-18.449218 14.609376-21.132812 9.269531-2.683594 19.148437 1.523438 23.640624 10.0625 4.488282 8.539062 2.355469 19.0625-5.105468 25.179688-7.464844 6.117187-18.199219 6.140624-25.691406.0625-2.050782-1.667969-4.792969-2.21875-7.328126-1.464844-2.535156.753906-4.535156 2.710937-5.339843 5.230468-1.28125 3.964844-5.511719 6.167969-9.496094 4.941407-3.980469-1.226563-6.242187-5.425781-5.070313-9.425781zm0 0" fill="url(#b)"/><path d="m319.972656 110.667969c12.980469 0 23.5-10.523438 23.5-23.5 0-12.980469-10.519531-23.5-23.5-23.5-12.976562 0-23.5 10.519531-23.5 23.5.015625 12.972656 10.527344 23.484375 23.5 23.5zm0-31c4.144532 0 7.5 3.355469 7.5 7.5 0 4.140625-3.355468 7.5-7.5 7.5-4.140625 0-7.5-3.359375-7.5-7.5.003906-4.140625 3.359375-7.496094 7.5-7.5zm0 0" fill="url(#c)"/><path d="m229.472656 377.949219c0-4.417969-3.582031-8-8-8h-39c-4.417968 0-8 3.582031-8 8v25c0 4.417969 3.582032 8 8 8h39c4.417969 0 8-3.582031 8-8zm-39 8h24v10h-24zm0 0" fill="url(#d)"/><path d="m292.472656 377.949219c0-4.417969-3.582031-8-8-8h-39c-4.417968 0-8 3.582031-8 8v25c0 4.417969 3.582032 8 8 8h39c4.417969 0 8-3.582031 8-8zm-39 8h24v10h-24zm0 0" fill="url(#e)"/><path d="m229.472656 427.949219c0-4.417969-3.582031-8-8-8h-39c-4.417968 0-8 3.582031-8 8v25c0 4.417969 3.582032 8 8 8h39c4.417969 0 8-3.582031 8-8zm-39 8h24v10h-24zm0 0" fill="url(#d)"/><path d="m292.472656 427.949219c0-4.417969-3.582031-8-8-8h-39c-4.417968 0-8 3.582031-8 8v25c0 4.417969 3.582032 8 8 8h39c4.417969 0 8-3.582031 8-8zm-39 8h24v10h-24zm0 0" fill="url(#e)"/><path d="m464.378906 249.796875c-2.511718-1.421875-5.589844-1.386719-8.070312.089844l-86.226563 51.542969-20.65625-179.535157c-.480469-4.011719-3.914062-7.011719-7.953125-6.945312h-48c-4.035156-.066407-7.46875 2.933593-7.945312 6.945312l-17.300782 150.539063-100.753906 60.175781v-75.855469c-.007812-2.882812-1.558594-5.539062-4.066406-6.957031-2.507812-1.421875-5.585938-1.386719-8.0625.089844l-150.929688 90.199219c-2.429687 1.441406-3.925781 4.050781-3.941406 6.871093v136.949219c.035156 4.441406 3.640625 8.027344 8.082032 8.042969h451.839843c4.441407-.015625 8.042969-3.601563 8.078125-8.042969v-227.152344c-.015625-2.886718-1.578125-5.542968-4.09375-6.957031zm-163.773437-118.847656h33.734375l9.699218 84.269531c-11.441406 2.171875-41.691406 2.242188-53.136718.070312zm-11.523438 99.988281c1.164063.183594 2.261719.320312 3.230469.445312 16.726562 1.765626 33.59375 1.765626 50.324219 0 .96875-.125 2.066406-.261718 3.230469-.445312l8.914062 79.5-37.308594 22.171875v-75.855469c.105469-2.847656-1.367187-5.519531-3.828125-6.957031-2.460937-1.4375-5.515625-1.402344-7.941406.089844l-20.25 12.140625zm12.390625 39.921875v205.089844h-134v-124.703125zm-285 80.636719 135-80.636719v205.089844h-135zm436 124.453125h-135v-124.703125l135-80.386719zm0 0" fill="url(#f)"/><path d="m380.472656 377.949219c0-4.417969-3.582031-8-8-8h-39c-4.417968 0-8 3.582031-8 8v25c0 4.417969 3.582032 8 8 8h39c4.417969 0 8-3.582031 8-8zm-39 8h23v10h-23zm0 0" fill="url(#g)"/><path d="m443.472656 377.949219c0-4.417969-3.582031-8-8-8h-39c-4.417968 0-8 3.582031-8 8v25c0 4.417969 3.582032 8 8 8h39c4.417969 0 8-3.582031 8-8zm-39 8h23v10h-23zm0 0" fill="url(#h)"/><path d="m380.472656 427.949219c0-4.417969-3.582031-8-8-8h-39c-4.417968 0-8 3.582031-8 8v25c0 4.417969 3.582032 8 8 8h39c4.417969 0 8-3.582031 8-8zm-39 8h23v10h-23zm0 0" fill="url(#g)"/><path d="m443.472656 427.949219c0-4.417969-3.582031-8-8-8h-39c-4.417968 0-8 3.582031-8 8v25c0 4.417969 3.582032 8 8 8h39c4.417969 0 8-3.582031 8-8zm-39 8h23v10h-23zm0 0" fill="url(#h)"/><path d="m79.472656 377.949219c0-4.417969-3.582031-8-8-8h-39c-4.417968 0-8 3.582031-8 8v25c0 4.417969 3.582032 8 8 8h39c4.417969 0 8-3.582031 8-8zm-16 18h-23v-10h23zm0 0" fill="url(#i)"/><path d="m142.472656 377.949219c0-4.417969-3.582031-8-8-8h-39c-4.417968 0-8 3.582031-8 8v25c0 4.417969 3.582032 8 8 8h39c4.417969 0 8-3.582031 8-8zm-16 18h-23v-10h23zm0 0" fill="url(#j)"/><path d="m79.472656 427.949219c0-4.417969-3.582031-8-8-8h-39c-4.417968 0-8 3.582031-8 8v25c0 4.417969 3.582032 8 8 8h39c4.417969 0 8-3.582031 8-8zm-16 18h-23v-10h23zm0 0" fill="url(#i)"/><path d="m142.472656 427.949219c0-4.417969-3.582031-8-8-8h-39c-4.417968 0-8 3.582031-8 8v25c0 4.417969 3.582032 8 8 8h39c4.417969 0 8-3.582031 8-8zm-16 18h-23v-10h23zm0 0" fill="url(#j)"/></svg>