<svg height="504pt" viewBox="0 -58 504.36927 504" width="504pt" xmlns="http://www.w3.org/2000/svg" xmlns:xlink="http://www.w3.org/1999/xlink"><linearGradient id="a"><stop offset="0" stop-color="#00efd1"/><stop offset="1" stop-color="#00acea"/></linearGradient><linearGradient id="b" gradientUnits="userSpaceOnUse" x1="203.437651" x2="203.437651" xlink:href="#a" y1="-37.815365" y2="422.340635"/><linearGradient id="c" gradientUnits="userSpaceOnUse" x1="252.180651" x2="252.180651" xlink:href="#a" y1="-37.815365" y2="422.340635"/><linearGradient id="d" gradientUnits="userSpaceOnUse" x1="353.875651" x2="353.875651" xlink:href="#a" y1="-37.815365" y2="422.340635"/><linearGradient id="e" gradientUnits="userSpaceOnUse" x1="450.987651" x2="450.987651" xlink:href="#a" y1="-37.815365" y2="422.340635"/><path d="m203.4375 223.417969c16.773438 0 30.375-13.597657 30.375-30.375 0-16.773438-13.601562-30.371094-30.375-30.371094s-30.375 13.597656-30.375 30.371094c.019531 16.769531 13.609375 30.355469 30.375 30.375zm0-44.746094c7.9375 0 14.375 6.433594 14.375 14.371094 0 7.941406-6.4375 14.375-14.375 14.375s-14.375-6.433594-14.375-14.375c.011719-7.933594 6.441406-14.363281 14.375-14.371094zm0 0" fill="url(#b)"/><path d="m484.179688 289.183594h3.1875c2.855468.003906 5.496093-1.519532 6.925781-3.992188 1.429687-2.472656 1.429687-5.523437 0-7.996094l-31.183594-54.011718c-1.429687-2.472656-4.070313-4-6.929687-4-2.855469 0-5.496094 1.527344-6.925782 4l-31.1875 54.019531c-1.429687 2.472656-1.425781 5.519531.003906 7.992187 1.429688 2.46875 4.066407 3.992188 6.921876 3.988282h3.1875l-19.109376 33.109375c-1.425781 2.460937-1.425781 5.5.007813 7.957031 1.433594 2.460938 4.074219 3.960938 6.917969 3.933594h32.183594v38h-61.199219l-.066407-131.371094c0-.195312-.015624-.386719-.03125-.574219.113282-2.050781-.566406-4.066406-1.898437-5.628906l-103.46875-120.648437c-1.523437-1.765626-3.742187-2.78125-6.074219-2.777344l-72.261718.007812v.121094c-2.238282.140625-4.335938 1.15625-5.835938 2.828125l-31.582031 37.445313-17.582031-30.402344h3.1875c2.855468.003906 5.496093-1.519532 6.925781-3.992188 1.429687-2.472656 1.429687-5.523437 0-7.996094l-31.183594-54.011718c-1.429687-2.472656-4.070313-4-6.929687-4-2.855469 0-5.496094 1.527344-6.925782 4l-31.1875 54.015625c-1.429687 2.472656-1.429687 5.519531 0 7.992187 1.429688 2.476563 4.070313 3.996094 6.925782 3.992188h3.1875l-19.113282 33.109375c-1.425781 2.460937-1.421875 5.5.011719 7.960937 1.429687 2.457032 4.070313 3.957032 6.917969 3.929688h30.183594v51.589844l-13.316407 15.703124c-1.117187.914063-1.929687 2.140626-2.335937 3.523438-.472656 1.03125-.722656 2.144531-.730469 3.277344 0 .214844 0 .425781.023437.636718-.113281 1.386719-.164062 2.921876-.210937 4.628907-.105469 3.726562-.1875 9.148437-.234375 16.113281-.078125 11.664062-.078125 27.867188 0 48.167969.015625 3.757812.035156 7.515625.050781 11.242187l-17.246093-29.882812h3.1875c2.855468.003906 5.496093-1.519532 6.925781-3.992188 1.429687-2.472656 1.429687-5.523437 0-7.996094l-31.183594-54.011718c-1.429687-2.472656-4.070313-4-6.929687-4-2.855469 0-5.496094 1.527344-6.925782 4l-31.1875 54.015625c-1.429687 2.472656-1.429687 5.519531 0 7.992187 1.429688 2.476563 4.070313 3.996094 6.925782 3.992188h3.1875l-19.113282 33.109375c-1.425781 2.460937-1.421875 5.5.011719 7.960937 1.429687 2.457032 4.070313 3.957032 6.917969 3.929688h30.183594v36h-12.191407c-4.417969 0-8 3.582031-8 8 0 4.417968 3.582031 8 8 8h452c4.417969 0 8-3.582032 8-8 0-4.417969-3.582031-8-8-8h-13.808593v-38h32.1875c2.847656.027344 5.496093-1.480469 6.929687-3.945313 1.429687-2.464843 1.429687-5.507812-.003906-7.972656zm-171.332032-41.332032 58.070313-.027343.0625 124.359375h-58.070313zm48.675782-16.027343-52.648438.027343-88.347656-104.667968 51.238281-.023438zm-158.117188-100.121094 84.804688 100.46875-169.507813.089844zm-90.441406-22.511719c-1.429688-2.476562-4.070313-4.003906-6.929688-4.007812h-3.183594l17.328126-30.015625 17.332031 30.015625h-3.183594c-2.859375.003906-5.503906 1.53125-6.929687 4.007812-1.429688 2.457032-1.429688 5.492188 0 7.945313l19.109374 33.046875h-27.191406c-.433594 0-.875-.117188-1.328125-.117188s-.894531.117188-1.328125.117188h-22.808594l19.109376-33.046875c1.429687-2.453125 1.429687-5.488281.003906-7.945313zm13.214844 56.992188h27.164062l-27.164062 32.601562zm-85.214844 113.007812c-1.429688-2.476562-4.070313-4.003906-6.929688-4.007812h-3.183594l17.328126-30.015625 17.332031 30.015625h-3.183594c-2.859375.003906-5.503906 1.53125-6.929687 4.007812-1.429688 2.457032-1.429688 5.492188 0 7.945313l19.109374 33.046875h-27.191406c-.433594 0-.875-.117188-1.328125-.117188s-.902343.117188-1.328125.117188h-22.808594l19.109376-33.046875c1.429687-2.453125 1.429687-5.488281.003906-7.945313zm13.214844 56.992188h34.1875c1.875.019531 3.695312-.628906 5.136718-1.828125.101563 15.789062.207032 29.828125.277344 37.828125h-39.601562zm149-56c-4.417969 0-8 3.582031-8 8v84h-85.398438c-.378906-43-.683594-102.972656-.253906-123.914063l187.320312-.101562.0625 124.015625h-85.730468v-84c0-4.417969-3.582032-8-8-8zm226.671874 38 19.109376-33.042969c1.429687-2.46875 1.429687-5.515625 0-7.984375-1.429688-2.46875-4.074219-3.984375-6.925782-3.972656h-3.183594l17.328126-30.015625 17.332031 30.015625h-3.183594c-2.859375.003906-5.503906 1.53125-6.929687 4.007812-1.429688 2.457032-1.429688 5.492188 0 7.945313l19.109374 33.046875zm0 0" fill="url(#c)"/><path d="m306.261719 84.351562c5.179687 3.183594 11.886719 4.707032 20.5 4.730469l54.101562.097657h.175781c8.535157 0 15.191407-1.492188 20.347657-4.628907 4.855469-2.949219 10.644531-8.777343 10.675781-19.863281-.046875-11.425781-6.292969-21.925781-16.3125-27.421875-1.335938-20.8125-18.578125-37.027344-39.433594-37.082031h-.097656c-20.023438.003906-36.898438 14.945312-39.324219 34.820312-12.574219 4.339844-21.058593 16.113282-21.199219 29.410156-.035156 11.085938 5.726563 16.960938 10.566407 19.9375zm19.140625-34.925781c4.265625-.402343 7.457031-4.09375 7.238281-8.371093-.019531-.433594-.035156-.871094-.03125-1.316407.03125-13.015625 10.589844-23.550781 23.605469-23.554687h.0625c13.039062.039062 23.582031 10.636718 23.550781 23.675781 0 .582031-.03125 1.230469-.097656 1.980469-.316407 3.746094 2.019531 7.207031 5.609375 8.316406 6.351562 1.988281 10.6875 7.855469 10.71875 14.511719-.011719 3.898437-1.441406 5.308593-2.988282 6.25-1.765624 1.074219-5.335937 2.355469-12.171874 2.332031l-54.101563-.136719c-6.859375-.015625-10.398437-1.3125-12.160156-2.394531-1.539063-.945312-2.964844-2.359375-2.953125-6.261719.078125-7.773437 5.988281-14.246093 13.71875-15.03125zm0 0" fill="url(#d)"/><path d="m414.714844 125.390625c4.175781 2.550781 9.492187 3.792969 16.265625 3.792969h40.015625c23.300781 0 25.117187-15.535156 25.117187-20.300782-.054687-8.808593-4.679687-16.957031-12.214843-21.519531-1.609376-15.65625-14.566407-27.699219-30.296876-28.164062-15.734374-.464844-29.375 10.796875-31.902343 26.332031-9.585938 3.78125-15.871094 13.050781-15.835938 23.351562 0 7.15625 3.144531 13.015626 8.851563 16.507813zm15.386718-25.574219c4.265626-.414062 7.449219-4.117187 7.214844-8.402344-.015625-.28125-.027344-.5625-.027344-.847656.070313-8.445312 6.9375-15.257812 15.386719-15.257812s15.316407 6.8125 15.382813 15.257812c0 .378906-.019532.800782-.058594 1.285156-.3125 3.75 2.03125 7.214844 5.628906 8.316407 3.832032 1.183593 6.453125 4.714843 6.484375 8.722656 0 1.605469 0 4.300781-9.117187 4.300781h-40.015625c-9.117188 0-9.117188-2.691406-9.117188-4.300781.035157-4.679687 3.582031-8.585937 8.238281-9.074219zm0 0" fill="url(#e)"/></svg>