<svg height="474pt" viewBox="0 -17 474.153 474" width="474pt" xmlns="http://www.w3.org/2000/svg" xmlns:xlink="http://www.w3.org/1999/xlink"><linearGradient id="a"><stop offset="0" stop-color="#00efd1"/><stop offset="1" stop-color="#00acea"/></linearGradient><linearGradient id="b" gradientUnits="userSpaceOnUse" x1="237.077" x2="237.077" xlink:href="#a" y1="28.0765" y2="424.0565"/><linearGradient id="c" gradientUnits="userSpaceOnUse" x1="377.287" x2="377.287" xlink:href="#a" y1="28.0765" y2="424.0565"/><linearGradient id="d" gradientUnits="userSpaceOnUse" x1="292.153" x2="292.153" xlink:href="#a" y1="28.0765" y2="424.0565"/><linearGradient id="e" gradientUnits="userSpaceOnUse" x1="245.153" x2="245.153" xlink:href="#a" y1="28.0765" y2="424.0565"/><linearGradient id="f" gradientUnits="userSpaceOnUse" x1="198.153" x2="198.153" xlink:href="#a" y1="28.0765" y2="424.0565"/><linearGradient id="g" gradientUnits="userSpaceOnUse" x1="430.829" x2="430.829" xlink:href="#a" y1="28.0765" y2="424.0565"/><path d="m466.820312 110.078125h-121.667968v-102.570313c0-3.867187-2.964844-7.429687-6.832032-7.429687h-184.410156c-3.863281 0-6.757812 3.5625-6.757812 7.429687v157.570313h-81.1875c-1.789063-.101563-3.535156.546875-4.824219 1.785156-1.292969 1.238281-2.011719 2.957031-1.988281 4.746094v58.46875h-51.515625c-3.863281 0-7.484375 3.308594-7.484375 7.171875v50.5625c0 .46875-.152344.953125-.152344 1.449219 0 .5.152344.984375.152344 1.453125v44.382812c0 .46875-.152344.953125-.152344 1.449219 0 .5.152344.984375.152344 1.453125v44.375c0 .46875-.152344.957031-.152344 1.453125 0 .5.152344.984375.152344 1.453125v47.359375c.191406 4.046875 3.441406 7.273437 7.484375 7.4375h459.183593c4.011719-.175781 7.210938-3.417969 7.332032-7.433594v-315.882812c0-3.867188-3.464844-6.683594-7.332032-6.683594zm-135.667968-96v412h-170v-252.964844c0-.484375.167968-.988281.167968-1.5s-.167968-1.019531-.167968-1.5v-156.035156zm-184 315h-133v-33h133zm-133 14h133v34h-133zm51.8125-99c3.867187.09375 7.082031-2.957031 7.1875-6.828125v-58.171875h74v103h-133v-38zm-51.8125 147h133v35h-133zm446 35h-115v-302h115zm0 0" fill="url(#b)"/><path d="m364.054688 286.078125h26.476562c3.867188 0 7-3.136719 7-7 0-3.867187-3.132812-7-7-7h-26.476562c-3.867188 0-7 3.132813-7 7 0 3.863281 3.132812 7 7 7zm0 0" fill="url(#c)"/><path d="m364.054688 334.078125h26.476562c3.867188 0 7-3.136719 7-7 0-3.867187-3.132812-7-7-7h-26.476562c-3.867188 0-7 3.132813-7 7 0 3.863281 3.132812 7 7 7zm0 0" fill="url(#c)"/><path d="m390.527344 367.078125h-26.472656c-3.867188 0-7 3.132813-7 7 0 3.863281 3.132812 7 7 7h26.476562c3.867188 0 7-3.136719 7-7 0-3.867187-3.132812-7-7-7zm0 0" fill="url(#c)"/><path d="m292.152344 207.371094c3.867187 0 7-3.136719 7-7v-30.261719c0-3.867187-3.132813-7-7-7-3.867188 0-7 3.132813-7 7v30.261719c0 3.863281 3.132812 7 7 7zm0 0" fill="url(#d)"/><path d="m245.152344 207.371094c3.867187 0 7-3.136719 7-7v-30.261719c0-3.867187-3.132813-7-7-7-3.867188 0-7 3.132813-7 7v30.261719c0 3.863281 3.132812 7 7 7zm0 0" fill="url(#e)"/><path d="m198.152344 207.371094c3.867187 0 7-3.136719 7-7v-30.261719c0-3.867187-3.132813-7-7-7-3.867188 0-7 3.132813-7 7v30.261719c0 3.863281 3.132812 7 7 7zm0 0" fill="url(#f)"/><path d="m364.054688 192.078125h26.476562c3.867188 0 7-3.136719 7-7 0-3.867187-3.132812-7-7-7h-26.476562c-3.867188 0-7 3.132813-7 7 0 3.863281 3.132812 7 7 7zm0 0" fill="url(#c)"/><path d="m364.054688 239.078125h26.476562c3.867188 0 7-3.136719 7-7 0-3.867187-3.132812-7-7-7h-26.476562c-3.867188 0-7 3.132813-7 7 0 3.863281 3.132812 7 7 7zm0 0" fill="url(#c)"/><g fill="url(#g)"><path d="m417.589844 286.078125h26.480468c3.863282 0 7-3.136719 7-7 0-3.867187-3.136718-7-7-7h-26.480468c-3.867188 0-7 3.132813-7 7 0 3.863281 3.132812 7 7 7zm0 0"/><path d="m417.589844 334.078125h26.480468c3.863282 0 7-3.136719 7-7 0-3.867187-3.136718-7-7-7h-26.480468c-3.867188 0-7 3.132813-7 7 0 3.863281 3.132812 7 7 7zm0 0"/><path d="m417.589844 381.078125h26.480468c3.863282 0 7-3.136719 7-7 0-3.867187-3.136718-7-7-7h-26.480468c-3.867188 0-7 3.132813-7 7 0 3.863281 3.132812 7 7 7zm0 0"/><path d="m417.589844 192.078125h26.480468c3.863282 0 7-3.136719 7-7 0-3.867187-3.136718-7-7-7h-26.480468c-3.867188 0-7 3.132813-7 7 0 3.863281 3.132812 7 7 7zm0 0"/><path d="m417.589844 239.078125h26.480468c3.863282 0 7-3.136719 7-7 0-3.867187-3.136718-7-7-7h-26.480468c-3.867188 0-7 3.132813-7 7 0 3.863281 3.132812 7 7 7zm0 0"/></g><path d="m292.152344 127.371094c3.867187 0 7-3.136719 7-7v-30.261719c0-3.867187-3.132813-7-7-7-3.867188 0-7 3.132813-7 7v30.261719c0 3.863281 3.132812 7 7 7zm0 0" fill="url(#d)"/><path d="m245.152344 127.371094c3.867187 0 7-3.136719 7-7v-30.261719c0-3.867187-3.132813-7-7-7-3.867188 0-7 3.132813-7 7v30.261719c0 3.863281 3.132812 7 7 7zm0 0" fill="url(#e)"/><path d="m198.152344 127.371094c3.867187 0 7-3.136719 7-7v-30.261719c0-3.867187-3.132813-7-7-7-3.867188 0-7 3.132813-7 7v30.261719c0 3.863281 3.132812 7 7 7zm0 0" fill="url(#f)"/><path d="m292.152344 287.371094c3.867187 0 7-3.136719 7-7v-30.261719c0-3.867187-3.132813-7-7-7-3.867188 0-7 3.132813-7 7v30.261719c0 3.863281 3.132812 7 7 7zm0 0" fill="url(#d)"/><path d="m245.152344 287.371094c3.867187 0 7-3.136719 7-7v-30.261719c0-3.867187-3.132813-7-7-7-3.867188 0-7 3.132813-7 7v30.261719c0 3.863281 3.132812 7 7 7zm0 0" fill="url(#e)"/><path d="m198.152344 287.371094c3.867187 0 7-3.136719 7-7v-30.261719c0-3.867187-3.132813-7-7-7-3.867188 0-7 3.132813-7 7v30.261719c0 3.863281 3.132812 7 7 7zm0 0" fill="url(#f)"/><path d="m292.152344 367.371094c3.867187 0 7-3.136719 7-7v-30.261719c0-3.867187-3.132813-7-7-7-3.867188 0-7 3.132813-7 7v30.261719c0 3.863281 3.132812 7 7 7zm0 0" fill="url(#d)"/><path d="m245.152344 367.371094c3.867187 0 7-3.136719 7-7v-30.261719c0-3.867187-3.132813-7-7-7-3.867188 0-7 3.132813-7 7v30.261719c0 3.863281 3.132812 7 7 7zm0 0" fill="url(#e)"/><path d="m198.152344 367.371094c3.867187 0 7-3.136719 7-7v-30.261719c0-3.867187-3.132813-7-7-7-3.867188 0-7 3.132813-7 7v30.261719c0 3.863281 3.132812 7 7 7zm0 0" fill="url(#f)"/></svg>