<svg id="Layer_1" height="512" viewBox="0 0 512 512" width="512" xmlns="http://www.w3.org/2000/svg" xmlns:xlink="http://www.w3.org/1999/xlink" data-name="Layer 1"><linearGradient id="linear-gradient" gradientUnits="userSpaceOnUse" x1="256" x2="256" y1="36" y2="472.018"><stop offset="0" stop-color="#00efd1"/><stop offset="1" stop-color="#00acea"/></linearGradient><linearGradient id="linear-gradient-2" x1="256.048" x2="256.048" xlink:href="#linear-gradient" y1="36" y2="472.018"/><path d="m290.823 430h-69.646c-3.314 0-6.177 2.272-6.177 5.585v12.236c0 10.228 8.5 18.179 18.726 18.179h44.548c10.226 0 18.726-7.951 18.726-18.179v-12.236c0-3.313-2.863-5.585-6.177-5.585zm-5.823 17.821c0 3.611-3.114 6.179-6.726 6.179h-44.548c-3.612 0-6.726-2.568-6.726-6.179v-5.821h58z" fill="url(#linear-gradient)"/><path d="m375 128.965v-109.965c0-3.314-3.109-6-6.423-6h-64.184c-3.314 0-6.393 2.689-6.393 6v39.886l-34.941-29.565a5.867 5.867 0 0 0 -7.661.027l-203.324 173.605a6 6 0 0 0 -.878 8.165l18.252 24.3a6.283 6.283 0 0 0 8.5 1.292l12.052-8.393v184.675c0 3.307 2.237 5.99 5.544 6l88.456.249v36.109c0 24.067 20.012 43.65 44.078 43.65h55.844c24.066 0 44.078-19.583 44.078-43.65v-35.707l85.585.357h.011a6.536 6.536 0 0 0 4.441-1.809 6.341 6.341 0 0 0 1.963-4.307v-185.684l13.1 8.56a5.871 5.871 0 0 0 7.781-1.232l19.787-24.1a5.985 5.985 0 0 0 -.512-8.343zm-59 326.385c0 17.45-14.628 31.65-32.078 31.65h-55.844c-17.45 0-32.078-14.2-32.078-31.65v-53.96c0-7.071 6.185-12.39 13.255-12.39h93.49c7.07 0 13.255 5.319 13.255 12.39zm-76.553-96.371 14.336-11.579a6.179 6.179 0 0 0 2.217-4.8v-15.808a5.96 5.96 0 0 0 -2.136-4.624l-12.894-10.676 13.771-17.044a6 6 0 0 0 -.008-7.553l-14.311-17.613 18.886-22.076 13.692 18.517v111.277h-33.128zm195.453-135.198-18.05-11.625a5.643 5.643 0 0 0 -5.922-.222 5.82 5.82 0 0 0 -2.928 5.266v190.667l-80-.224v-6.253c0-13.69-11.567-24.39-25.255-24.39h-17.745v-113.277a5.823 5.823 0 0 0 -1-3.6l-19.46-26.074a5.92 5.92 0 0 0 -9.263-.323l-27.233 31.514a6 6 0 0 0 -.111 7.708l14.423 17.744-14.431 17.878a6 6 0 0 0 .806 8.393l15.269 12.654v10.093l-14.4 11.529a6.411 6.411 0 0 0 -2.236 5.05l.51 20.711h-18.619c-13.688 0-25.255 10.7-25.255 24.39v5.851l-82-.233v-190.308a6.272 6.272 0 0 0 -9.806-4.893l-16.587 11.733-11.379-15.119 195.206-166.645 41.1 34.591a5.668 5.668 0 0 0 6.2.848 5.822 5.822 0 0 0 3.266-5.439v-46.776h53v106.7a5.811 5.811 0 0 0 1.854 4.53l82.887 72.081z" fill="url(#linear-gradient-2)"/></svg>