<svg height="492pt" viewBox="-34 0 492 492.64764" width="492pt" xmlns="http://www.w3.org/2000/svg" xmlns:xlink="http://www.w3.org/1999/xlink"><linearGradient id="a" gradientUnits="userSpaceOnUse" x1="212.25882" x2="212.25882" y1="26.323" y2="475.464"><stop offset="0" stop-color="#00efd1"/><stop offset="1" stop-color="#00acea"/></linearGradient><g fill="url(#a)"><path d="m212.257812 0c-116.859374 0-211.933593 91.050781-211.933593 202.964844 0 35.921875 11.074219 73.539062 32.917969 111.808594 17.257812 30.246093 41.269531 61 71.363281 91.402343 51.023437 51.546875 101.230469 83.863281 103.34375 85.210938 2.628906 1.679687 5.992187 1.679687 8.617187 0 2.113282-1.347657 52.324219-33.664063 103.34375-85.210938 30.09375-30.402343 54.101563-61.152343 71.367188-91.402343 21.839844-38.269532 32.917968-75.886719 32.917968-111.808594 0-111.914063-95.074218-202.964844-211.9375-202.964844zm165.199219 306.699219c-16.53125 29-39.644531 58.609375-68.699219 87.996093-29.609374 29.710938-61.914062 56.609376-96.5 80.347657-34.582031-23.738281-66.886718-50.636719-96.5-80.347657-29.054687-29.382812-52.167968-58.992187-68.699218-87.992187-20.394532-35.78125-30.734375-70.679687-30.734375-103.738281 0-103.09375 87.898437-186.964844 195.933593-186.964844 108.035157 0 195.9375 83.871094 195.9375 186.964844 0 33.058594-10.335937 67.957031-30.738281 103.738281zm0 0"/><path d="m212.257812 51.445312c-86.511718 0-156.890624 70.378907-156.890624 156.890626 0 86.511718 70.378906 156.894531 156.890624 156.894531 86.511719 0 156.894532-70.382813 156.894532-156.894531 0-86.511719-70.382813-156.890626-156.894532-156.890626zm0 297.785157c-77.6875 0-140.890624-63.199219-140.890624-140.894531 0-77.691407 63.203124-140.890626 140.890624-140.890626 77.691407 0 140.894532 63.203126 140.894532 140.890626s-63.203125 140.894531-140.894532 140.894531zm0 0"/><path d="m217.621094 99.515625c-3.003906-2.609375-7.472656-2.609375-10.480469-.003906l-91.761719 79.464843c-2.53125 2.25-3.425781 5.816407-2.261718 8.992188 1.152343 3.164062 4.132812 5.292969 7.5 5.355469h12.640624v92.464843c.015626 4.421876 3.554688 8.023438 7.976563 8.117188l140.222656 1.417969h.078125c2.082032-.046875 4.058594-.921875 5.492188-2.4375 1.480468-1.5625 2.285156-3.644531 2.234375-5.796875v-93.765625h14.644531c3.355469-.070313 6.332031-2.191407 7.488281-5.34375 1.160157-3.152344.269531-6.695313-2.246093-8.921875zm-5.25 16.929687 70.113281 60.878907h-140.410156zm14.886718 162.144532-30-.28125v-34.984375h30zm46 .421875-30-.273438v-43.46875c0-4.417969-3.09375-7.945312-7.511718-7.945312h-46.230469c-4.457031-.046875-8.128906 3.488281-8.257813 7.945312v42.890625l-32-.300781v-84.535156h124zm0 0"/></g></svg>