<svg height="486pt" viewBox="-24 0 486 486.04278" width="486pt" xmlns="http://www.w3.org/2000/svg" xmlns:xlink="http://www.w3.org/1999/xlink"><linearGradient id="a"><stop offset="0" stop-color="#00efd1"/><stop offset="1" stop-color="#00acea"/></linearGradient><linearGradient id="b" gradientUnits="userSpaceOnUse" x1="265.814112" x2="265.814112" xlink:href="#a" y1="23.042784" y2="475.908784"/><linearGradient id="c" gradientUnits="userSpaceOnUse" x1="263.716112" x2="263.716112" xlink:href="#a" y1="23.042784" y2="475.908784"/><linearGradient id="d" gradientUnits="userSpaceOnUse" x1="218.927112" x2="218.927112" xlink:href="#a" y1="23.042784" y2="475.908784"/><linearGradient id="e" gradientUnits="userSpaceOnUse" x1="169.136112" x2="169.136112" xlink:href="#a" y1="23.042784" y2="475.908784"/><linearGradient id="f" gradientUnits="userSpaceOnUse" x1="358.297112" x2="358.297112" xlink:href="#a" y1="23.042784" y2="475.908784"/><path d="m265.8125 336.796875c4.558594.003906 8.253906 3.699219 8.257812 8.257813 0 4.417968 3.582032 8 8 8 4.417969 0 8-3.582032 8-8-.015624-11.085938-7.527343-20.753907-18.261718-23.507813-.332032-4.261719-3.953125-7.507813-8.222656-7.375-4.273438.132813-7.683594 3.597656-7.75 7.871094v.910156c-10.417969 4.703125-16.140626 16.039063-13.734376 27.210937 2.40625 11.171876 12.285157 19.148438 23.710938 19.144532 4.5625 0 8.257812 3.699218 8.257812 8.257812s-3.695312 8.253906-8.257812 8.253906c-4.558594 0-8.253906-3.695312-8.253906-8.253906 0-4.417968-3.582032-8-8-8-4.417969 0-8 3.582032-8 8 .011718 9.527344 5.59375 18.171875 14.277344 22.097656v2.378907c0 4.417969 3.578124 8 8 8 4.417968 0 8-3.582031 8-8v-.976563c11.839843-3.035156 19.574218-14.40625 18.042968-26.535156-1.527344-12.125-11.839844-21.222656-24.066406-21.222656-4.523438-.046875-8.164062-3.730469-8.164062-8.253906 0-4.527344 3.640624-8.207032 8.164062-8.257813zm0 0" fill="url(#b)"/><path d="m263.714844 294.730469c-37.097656 0-67.171875 30.074219-67.167969 67.171875 0 37.097656 30.074219 67.171875 67.171875 67.171875s67.171875-30.074219 67.171875-67.171875c-.042969-37.082032-30.09375-67.132813-67.175781-67.171875zm0 118.34375c-28.261719-.003907-51.171875-22.914063-51.167969-51.175781 0-28.257813 22.910156-51.167969 51.171875-51.167969s51.171875 22.910156 51.171875 51.171875c-.035156 28.246094-22.925781 51.140625-51.175781 51.171875zm0 0" fill="url(#c)"/><path d="m411.21875 318.042969h-11.382812v-13.484375c-.101563-14.640625-11.976563-26.472656-26.621094-26.515625h-15.378906v-112h39.453124c3.398438.082031 6.457032-2.035157 7.574219-5.246094 1.117188-3.207031.035157-6.769531-2.679687-8.8125l-194.378906-150.324219c-2.886719-2.21875-6.90625-2.214844-9.785157.015625l-194.886719 150.378907c-2.703124 2.015624-3.789062 5.554687-2.683593 8.742187 1.125 3.203125 4.179687 5.320313 7.574219 5.246094h35.8125v187.953125c.066406 4.417968 3.648437 7.972656 8.066406 8l75.933594.699218v56.546876c0 14.570312 11.808593 26.800781 26.382812 26.800781h11.617188v13.582031c-.003907 14.578125 11.804687 26.402344 26.386718 26.417969h219c14.621094 0 26.507813-11.796875 26.613282-26.417969v-114.683594c0-14.574218-12.042969-26.898437-26.617188-26.898437zm-208.316406-300.257813 170.972656 132.257813h-342.390625zm-143.066406 328.285156v-180.027343h282v112h-187.617188c-14.597656.0625-26.394531 11.917969-26.382812 26.515625v42.140625zm324 73.546876c0 5.757812-4.671876 10.425781-10.429688 10.425781h-219.144531c-5.757813 0-10.425781-4.667969-10.425781-10.425781v-115.148438c0-5.757812 4.667968-10.425781 10.425781-10.425781h219.144531c5.757812 0 10.429688 4.667969 10.429688 10.425781zm38 40.007812c-.097657 5.789062-4.824219 10.429688-10.617188 10.417969h-219c-5.746094-.007813-10.394531-4.671875-10.382812-10.417969v-13.582031h191.378906c14.699218-.175781 26.542968-12.101563 26.621094-26.800781v-85.199219h11.382812c5.75 0 10.617188 5.148437 10.617188 10.898437zm0 0" fill="url(#d)"/><path d="m169.132812 297.207031c-11.75 0-21.273437 9.527344-21.273437 21.277344s9.527344 21.273437 21.277344 21.273437 21.273437-9.527343 21.273437-21.277343c-.015625-11.742188-9.53125-21.257813-21.277344-21.273438zm0 26.550781c-2.910156 0-5.273437-2.363281-5.273437-5.277343 0-2.910157 2.363281-5.273438 5.273437-5.273438 2.914063 0 5.277344 2.363281 5.277344 5.273438-.003906 2.914062-2.363281 5.273437-5.277344 5.277343zm0 0" fill="url(#e)"/><path d="m379.570312 404.765625c0-11.75-9.527343-21.273437-21.277343-21.273437-11.746094 0-21.273438 9.527343-21.273438 21.277343s9.527344 21.273438 21.277344 21.273438c11.746094-.015625 21.261719-9.53125 21.273437-21.277344zm-21.273437 5.277344c-2.914063 0-5.277344-2.363281-5.277344-5.273438 0-2.914062 2.363281-5.277343 5.277344-5.277343s5.273437 2.363281 5.273437 5.277343c-.003906 2.910157-2.363281 5.269531-5.273437 5.273438zm0 0" fill="url(#f)"/></svg>